<mxfile host="app.diagrams.net" modified="2024-03-01T12:54:32.842Z" agent="Mozilla/5.0 (Windows NT 10.0; Win64; x64) AppleWebKit/537.36 (KHTML, like Gecko) Chrome/122.0.0.0 Safari/537.36 Edg/122.0.0.0" etag="dv6c3gRsu78vtzq6Jyxx" version="23.1.1" type="device">
  <diagram name="Page-1" id="VqNeXx4PYzyPrJLvd4Lj">
    <mxGraphModel dx="754" dy="755" grid="1" gridSize="10" guides="1" tooltips="1" connect="1" arrows="1" fold="1" page="1" pageScale="1" pageWidth="850" pageHeight="1100" math="0" shadow="0">
      <root>
        <mxCell id="0" />
        <mxCell id="1" parent="0" />
        <mxCell id="kEnOJP-efhQ7M4jsaepu-4" style="edgeStyle=orthogonalEdgeStyle;rounded=0;orthogonalLoop=1;jettySize=auto;html=1;entryX=0.5;entryY=0;entryDx=0;entryDy=0;" edge="1" parent="1" source="kEnOJP-efhQ7M4jsaepu-1" target="kEnOJP-efhQ7M4jsaepu-2">
          <mxGeometry relative="1" as="geometry" />
        </mxCell>
        <mxCell id="kEnOJP-efhQ7M4jsaepu-1" value="Start Program" style="rounded=0;whiteSpace=wrap;html=1;" vertex="1" parent="1">
          <mxGeometry x="130" y="150" width="180" height="70" as="geometry" />
        </mxCell>
        <mxCell id="kEnOJP-efhQ7M4jsaepu-2" value="Main Application Window(Password Manager Interface)" style="rounded=0;whiteSpace=wrap;html=1;" vertex="1" parent="1">
          <mxGeometry x="130" y="290" width="180" height="90" as="geometry" />
        </mxCell>
        <mxCell id="kEnOJP-efhQ7M4jsaepu-14" style="edgeStyle=orthogonalEdgeStyle;rounded=0;orthogonalLoop=1;jettySize=auto;html=1;exitX=0.75;exitY=1;exitDx=0;exitDy=0;" edge="1" parent="1" source="kEnOJP-efhQ7M4jsaepu-3" target="kEnOJP-efhQ7M4jsaepu-10">
          <mxGeometry relative="1" as="geometry" />
        </mxCell>
        <mxCell id="kEnOJP-efhQ7M4jsaepu-23" style="edgeStyle=orthogonalEdgeStyle;rounded=0;orthogonalLoop=1;jettySize=auto;html=1;exitX=0.25;exitY=1;exitDx=0;exitDy=0;entryX=0.25;entryY=0;entryDx=0;entryDy=0;" edge="1" parent="1" source="kEnOJP-efhQ7M4jsaepu-3" target="kEnOJP-efhQ7M4jsaepu-21">
          <mxGeometry relative="1" as="geometry">
            <mxPoint x="175" y="1110" as="targetPoint" />
            <Array as="points">
              <mxPoint x="175" y="650" />
              <mxPoint x="420" y="650" />
              <mxPoint x="420" y="210" />
              <mxPoint x="715" y="210" />
            </Array>
          </mxGeometry>
        </mxCell>
        <mxCell id="kEnOJP-efhQ7M4jsaepu-3" value="Check&amp;nbsp; Login Status&lt;br&gt;(Ensure user in logged in to access password features)" style="rounded=0;whiteSpace=wrap;html=1;" vertex="1" parent="1">
          <mxGeometry x="130" y="530" width="180" height="100" as="geometry" />
        </mxCell>
        <mxCell id="kEnOJP-efhQ7M4jsaepu-6" value="" style="endArrow=classic;html=1;rounded=0;entryX=0.25;entryY=0;entryDx=0;entryDy=0;exitX=0.25;exitY=1;exitDx=0;exitDy=0;" edge="1" parent="1">
          <mxGeometry width="50" height="50" relative="1" as="geometry">
            <mxPoint x="219.5" y="380" as="sourcePoint" />
            <mxPoint x="219.5" y="530" as="targetPoint" />
          </mxGeometry>
        </mxCell>
        <mxCell id="kEnOJP-efhQ7M4jsaepu-7" value="User interacts:&lt;br&gt;- Add password&lt;br&gt;- Get password&lt;br&gt;- Display passwords" style="text;html=1;align=center;verticalAlign=middle;resizable=0;points=[];autosize=1;strokeColor=none;fillColor=none;" vertex="1" parent="1">
          <mxGeometry x="230" y="420" width="130" height="70" as="geometry" />
        </mxCell>
        <mxCell id="kEnOJP-efhQ7M4jsaepu-8" value="Logged in" style="text;html=1;align=center;verticalAlign=middle;resizable=0;points=[];autosize=1;strokeColor=none;fillColor=none;" vertex="1" parent="1">
          <mxGeometry x="510" y="180" width="80" height="30" as="geometry" />
        </mxCell>
        <mxCell id="kEnOJP-efhQ7M4jsaepu-9" value="Not logged in" style="text;html=1;align=center;verticalAlign=middle;resizable=0;points=[];autosize=1;strokeColor=none;fillColor=none;" vertex="1" parent="1">
          <mxGeometry x="270" y="680" width="90" height="30" as="geometry" />
        </mxCell>
        <mxCell id="kEnOJP-efhQ7M4jsaepu-16" style="edgeStyle=orthogonalEdgeStyle;rounded=0;orthogonalLoop=1;jettySize=auto;html=1;exitX=0.5;exitY=1;exitDx=0;exitDy=0;entryX=0.5;entryY=0;entryDx=0;entryDy=0;" edge="1" parent="1" source="kEnOJP-efhQ7M4jsaepu-10" target="kEnOJP-efhQ7M4jsaepu-15">
          <mxGeometry relative="1" as="geometry" />
        </mxCell>
        <mxCell id="kEnOJP-efhQ7M4jsaepu-10" value="Login window displayed&lt;br&gt;(Prompt for master password)" style="rounded=0;whiteSpace=wrap;html=1;" vertex="1" parent="1">
          <mxGeometry x="225" y="788" width="190" height="100" as="geometry" />
        </mxCell>
        <mxCell id="kEnOJP-efhQ7M4jsaepu-15" value="Verify master password" style="rounded=0;whiteSpace=wrap;html=1;" vertex="1" parent="1">
          <mxGeometry x="230" y="980" width="180" height="60" as="geometry" />
        </mxCell>
        <mxCell id="kEnOJP-efhQ7M4jsaepu-17" value="User enters password&lt;br&gt;" style="text;html=1;align=center;verticalAlign=middle;resizable=0;points=[];autosize=1;strokeColor=none;fillColor=none;" vertex="1" parent="1">
          <mxGeometry x="330" y="918" width="140" height="30" as="geometry" />
        </mxCell>
        <mxCell id="kEnOJP-efhQ7M4jsaepu-18" value="" style="endArrow=classic;html=1;rounded=0;entryX=0.75;entryY=0;entryDx=0;entryDy=0;exitX=1;exitY=0.75;exitDx=0;exitDy=0;" edge="1" parent="1" source="kEnOJP-efhQ7M4jsaepu-15" target="kEnOJP-efhQ7M4jsaepu-10">
          <mxGeometry width="50" height="50" relative="1" as="geometry">
            <mxPoint x="450" y="1030" as="sourcePoint" />
            <mxPoint x="500" y="980" as="targetPoint" />
            <Array as="points">
              <mxPoint x="540" y="1025" />
              <mxPoint x="540" y="710" />
              <mxPoint x="368" y="710" />
            </Array>
          </mxGeometry>
        </mxCell>
        <mxCell id="kEnOJP-efhQ7M4jsaepu-19" value="Incorrect password" style="text;html=1;align=center;verticalAlign=middle;resizable=0;points=[];autosize=1;strokeColor=none;fillColor=none;" vertex="1" parent="1">
          <mxGeometry x="425" y="840" width="120" height="30" as="geometry" />
        </mxCell>
        <mxCell id="kEnOJP-efhQ7M4jsaepu-27" style="edgeStyle=orthogonalEdgeStyle;rounded=0;orthogonalLoop=1;jettySize=auto;html=1;exitX=0.5;exitY=1;exitDx=0;exitDy=0;entryX=0.5;entryY=0;entryDx=0;entryDy=0;" edge="1" parent="1" source="kEnOJP-efhQ7M4jsaepu-21" target="kEnOJP-efhQ7M4jsaepu-26">
          <mxGeometry relative="1" as="geometry" />
        </mxCell>
        <mxCell id="kEnOJP-efhQ7M4jsaepu-21" value="Continue to features&lt;br&gt;&amp;nbsp;( Add password. Get password, Display passwords)" style="rounded=0;whiteSpace=wrap;html=1;" vertex="1" parent="1">
          <mxGeometry x="640" y="280" width="300" height="110" as="geometry" />
        </mxCell>
        <mxCell id="kEnOJP-efhQ7M4jsaepu-24" style="edgeStyle=orthogonalEdgeStyle;rounded=0;orthogonalLoop=1;jettySize=auto;html=1;exitX=0.5;exitY=1;exitDx=0;exitDy=0;entryX=0.724;entryY=0.017;entryDx=0;entryDy=0;entryPerimeter=0;" edge="1" parent="1" source="kEnOJP-efhQ7M4jsaepu-15" target="kEnOJP-efhQ7M4jsaepu-21">
          <mxGeometry relative="1" as="geometry">
            <Array as="points">
              <mxPoint x="320" y="1060" />
              <mxPoint x="600" y="1060" />
              <mxPoint x="600" y="170" />
              <mxPoint x="857" y="170" />
            </Array>
          </mxGeometry>
        </mxCell>
        <mxCell id="kEnOJP-efhQ7M4jsaepu-25" value="Correct password" style="text;html=1;align=center;verticalAlign=middle;resizable=0;points=[];autosize=1;strokeColor=none;fillColor=none;" vertex="1" parent="1">
          <mxGeometry x="330" y="1070" width="120" height="30" as="geometry" />
        </mxCell>
        <mxCell id="kEnOJP-efhQ7M4jsaepu-28" style="edgeStyle=orthogonalEdgeStyle;rounded=0;orthogonalLoop=1;jettySize=auto;html=1;exitX=1;exitY=0.5;exitDx=0;exitDy=0;entryX=1;entryY=0.5;entryDx=0;entryDy=0;" edge="1" parent="1" source="kEnOJP-efhQ7M4jsaepu-26" target="kEnOJP-efhQ7M4jsaepu-21">
          <mxGeometry relative="1" as="geometry">
            <Array as="points">
              <mxPoint x="1050" y="470" />
              <mxPoint x="1050" y="335" />
            </Array>
          </mxGeometry>
        </mxCell>
        <mxCell id="kEnOJP-efhQ7M4jsaepu-30" style="edgeStyle=orthogonalEdgeStyle;rounded=0;orthogonalLoop=1;jettySize=auto;html=1;exitX=0.5;exitY=1;exitDx=0;exitDy=0;entryX=0.5;entryY=0;entryDx=0;entryDy=0;" edge="1" parent="1" source="kEnOJP-efhQ7M4jsaepu-26" target="kEnOJP-efhQ7M4jsaepu-29">
          <mxGeometry relative="1" as="geometry" />
        </mxCell>
        <mxCell id="kEnOJP-efhQ7M4jsaepu-26" value="Perform selected action" style="rounded=0;whiteSpace=wrap;html=1;" vertex="1" parent="1">
          <mxGeometry x="730" y="440" width="120" height="60" as="geometry" />
        </mxCell>
        <mxCell id="kEnOJP-efhQ7M4jsaepu-29" value="End program" style="rounded=0;whiteSpace=wrap;html=1;" vertex="1" parent="1">
          <mxGeometry x="730" y="590" width="120" height="60" as="geometry" />
        </mxCell>
        <mxCell id="kEnOJP-efhQ7M4jsaepu-31" value="Display all passwords" style="rounded=0;whiteSpace=wrap;html=1;" vertex="1" parent="1">
          <mxGeometry x="1260" y="300" width="120" height="60" as="geometry" />
        </mxCell>
        <mxCell id="kEnOJP-efhQ7M4jsaepu-37" style="edgeStyle=orthogonalEdgeStyle;rounded=0;orthogonalLoop=1;jettySize=auto;html=1;exitX=0.5;exitY=1;exitDx=0;exitDy=0;entryX=0.5;entryY=0;entryDx=0;entryDy=0;" edge="1" parent="1" source="kEnOJP-efhQ7M4jsaepu-31" target="kEnOJP-efhQ7M4jsaepu-33">
          <mxGeometry relative="1" as="geometry">
            <mxPoint x="1320" y="365" as="sourcePoint" />
          </mxGeometry>
        </mxCell>
        <mxCell id="kEnOJP-efhQ7M4jsaepu-38" style="edgeStyle=orthogonalEdgeStyle;rounded=0;orthogonalLoop=1;jettySize=auto;html=1;exitX=0.5;exitY=1;exitDx=0;exitDy=0;entryX=0.5;entryY=0;entryDx=0;entryDy=0;" edge="1" parent="1" source="kEnOJP-efhQ7M4jsaepu-33" target="kEnOJP-efhQ7M4jsaepu-34">
          <mxGeometry relative="1" as="geometry" />
        </mxCell>
        <mxCell id="kEnOJP-efhQ7M4jsaepu-33" value="Retrieve all encrypted usernames, website names and passwords" style="rounded=0;whiteSpace=wrap;html=1;" vertex="1" parent="1">
          <mxGeometry x="1260" y="420" width="120" height="60" as="geometry" />
        </mxCell>
        <mxCell id="kEnOJP-efhQ7M4jsaepu-39" style="edgeStyle=orthogonalEdgeStyle;rounded=0;orthogonalLoop=1;jettySize=auto;html=1;exitX=0.5;exitY=1;exitDx=0;exitDy=0;entryX=0.5;entryY=0;entryDx=0;entryDy=0;" edge="1" parent="1" source="kEnOJP-efhQ7M4jsaepu-34" target="kEnOJP-efhQ7M4jsaepu-35">
          <mxGeometry relative="1" as="geometry" />
        </mxCell>
        <mxCell id="kEnOJP-efhQ7M4jsaepu-34" value="Decrypt" style="rounded=0;whiteSpace=wrap;html=1;" vertex="1" parent="1">
          <mxGeometry x="1260" y="540" width="120" height="60" as="geometry" />
        </mxCell>
        <mxCell id="kEnOJP-efhQ7M4jsaepu-35" value="Display all data" style="rounded=0;whiteSpace=wrap;html=1;" vertex="1" parent="1">
          <mxGeometry x="1260" y="670" width="120" height="60" as="geometry" />
        </mxCell>
      </root>
    </mxGraphModel>
  </diagram>
</mxfile>
